<?xml version="1.0" encoding="UTF-8" standalone="no"?>
<svg style="enable-background:new" xmlns="http://www.w3.org/2000/svg" height="1024" width="1024" version="1.1" xmlns:xlink="http://www.w3.org/1999/xlink" viewBox="0 0 1024 1024">
 <g style="enable-background:new" transform="translate(256,256)">
  <g stroke-width="3.372" transform="matrix(3.78 0 0 3.78 -.06301 -610.5)">
   <path fill="#d1d1d1" d="m35.73 192.9c-4.414-0.002-8.029 3.628-8.029 8.045v49.85c0 4.414 3.611 8.029 8.029 8.029h64.23c4.414 0 8.029-3.611 8.029-8.029v-43.41c0-4.414-36.89-8.067-36.89-8.067l-6.517-6.403z"/>
   <path fill="#f2f2f2" d="m99.97 199.3c4.414 0.0002 8.029 3.613 8.029 8.031v49.85c0 4.414-3.611 8.029-8.029 8.029h-64.24c-4.414 0-8.029-3.611-8.029-8.029v-42.89c0-4.414 3.612-8.101 8.029-8.029h28.94l6.441-6.97z"/>
  </g>
 </g>
</svg>
